<svg width="58" height="57" viewBox="0 0 58 57" fill="none" xmlns="http://www.w3.org/2000/svg">
<path d="M58 28.5C58 44.2401 45.0163 57 29 57C12.9837 57 0 44.2401 0 28.5C0 12.7599 12.9837 0 29 0C45.0163 0 58 12.7599 58 28.5Z" fill="#E4EEED"/>
<path d="M37.283 27.3559H28.956V30.8069H33.748C33.302 32.9999 31.435 34.2599 28.956 34.2599C28.2623 34.2611 27.5753 34.1253 26.9342 33.8604C26.2931 33.5955 25.7106 33.2066 25.2202 32.716C24.7297 32.2255 24.341 31.6429 24.0761 31.0018C23.8113 30.3607 23.6757 29.6736 23.677 28.9799C23.6758 28.2863 23.8115 27.5993 24.0764 26.9583C24.3413 26.3173 24.7301 25.7349 25.2205 25.2445C25.711 24.754 26.2934 24.3652 26.9344 24.1003C27.5754 23.8355 28.2624 23.6997 28.956 23.7009C30.215 23.7009 31.353 24.1479 32.246 24.8789L34.846 22.2799C33.262 20.8989 31.231 20.0469 28.956 20.0469C27.7818 20.0435 26.6185 20.2722 25.533 20.72C24.4476 21.1677 23.4613 21.8257 22.6311 22.656C21.8008 23.4863 21.1428 24.4725 20.6951 25.558C20.2473 26.6434 20.0186 27.8067 20.022 28.9809C20.0184 30.1551 20.2471 31.3185 20.6948 32.404C21.1425 33.4896 21.8004 34.4758 22.6308 35.3062C23.4611 36.1365 24.4474 36.7944 25.5329 37.2421C26.6184 37.6898 27.7818 37.9185 28.956 37.9149C33.423 37.9149 37.485 34.6659 37.485 28.9809C37.485 28.4529 37.404 27.8839 37.283 27.3559Z" fill="#0F8801"/>
</svg>
