<svg width="58" height="57" viewBox="0 0 58 57" fill="none" xmlns="http://www.w3.org/2000/svg">
<path d="M58 28.5C58 44.2401 45.0163 57 29 57C12.9837 57 0 44.2401 0 28.5C0 12.7599 12.9837 0 29 0C45.0163 0 58 12.7599 58 28.5Z" fill="#E4EEED"/>
<path d="M28.999 24.377C27.7726 24.377 26.5965 24.8641 25.7293 25.7313C24.8622 26.5985 24.375 27.7746 24.375 29.001C24.375 30.2273 24.8622 31.4034 25.7293 32.2706C26.5965 33.1378 27.7726 33.625 28.999 33.625C30.2254 33.625 31.4015 33.1378 32.2687 32.2706C33.1358 31.4034 33.623 30.2273 33.623 29.001C33.623 27.7746 33.1358 26.5985 32.2687 25.7313C31.4015 24.8641 30.2254 24.377 28.999 24.377ZM28.999 32.004C28.2023 32.004 27.4382 31.6875 26.8749 31.1241C26.3115 30.5607 25.995 29.7967 25.995 29C25.995 28.2032 26.3115 27.4392 26.8749 26.8758C27.4382 26.3124 28.2023 25.996 28.999 25.996C29.7957 25.996 30.5598 26.3124 31.1231 26.8758C31.6865 27.4392 32.003 28.2032 32.003 29C32.003 29.7967 31.6865 30.5607 31.1231 31.1241C30.5598 31.6875 29.7957 32.004 28.999 32.004Z" fill="#0F8801"/>
<path d="M33.806 25.2849C34.4014 25.2849 34.884 24.8023 34.884 24.2069C34.884 23.6115 34.4014 23.1289 33.806 23.1289C33.2106 23.1289 32.728 23.6115 32.728 24.2069C32.728 24.8023 33.2106 25.2849 33.806 25.2849Z" fill="#0F8801"/>
<path d="M37.533 23.1109C37.3015 22.5131 36.9477 21.9702 36.4943 21.5169C36.0409 21.0637 35.4979 20.7102 34.9 20.4789C34.2003 20.2162 33.4612 20.0742 32.714 20.0589C31.751 20.0169 31.446 20.0049 29.004 20.0049C26.562 20.0049 26.249 20.0049 25.294 20.0589C24.5474 20.0734 23.8088 20.2155 23.11 20.4789C22.5119 20.7099 21.9688 21.0634 21.5153 21.5166C21.0619 21.9699 20.7082 22.5129 20.477 23.1109C20.2143 23.8105 20.0726 24.5497 20.058 25.2969C20.015 26.2589 20.002 26.5639 20.002 29.0069C20.002 31.4489 20.002 31.7599 20.058 32.7169C20.073 33.4649 20.214 34.2029 20.477 34.9039C20.7089 35.5016 21.0629 36.0445 21.5164 36.4977C21.97 36.9509 22.5131 37.3045 23.111 37.5359C23.8084 37.8091 24.5474 37.9613 25.296 37.9859C26.259 38.0279 26.564 38.0409 29.006 38.0409C31.448 38.0409 31.761 38.0409 32.716 37.9859C33.4631 37.9707 34.2022 37.829 34.902 37.5669C35.4998 37.3351 36.0426 36.9812 36.496 36.5279C36.9493 36.0745 37.3032 35.5316 37.535 34.9339C37.798 34.2339 37.939 33.4959 37.954 32.7479C37.997 31.7859 38.01 31.4809 38.01 29.0379C38.01 26.5949 38.01 26.2849 37.954 25.3279C37.9424 24.5702 37.7999 23.8201 37.533 23.1109ZM36.315 32.6429C36.3086 33.2192 36.2034 33.7901 36.004 34.3309C35.8538 34.7198 35.6239 35.0729 35.3291 35.3676C35.0342 35.6622 34.681 35.8919 34.292 36.0419C33.7572 36.2403 33.1924 36.3455 32.622 36.3529C31.672 36.3969 31.404 36.4079 28.968 36.4079C26.53 36.4079 26.281 36.4079 25.313 36.3529C24.7429 36.3459 24.1783 36.2407 23.644 36.0419C23.2537 35.8929 22.899 35.6636 22.6029 35.3688C22.3068 35.0741 22.0758 34.7205 21.925 34.3309C21.7284 33.7959 21.6233 33.2317 21.614 32.6619C21.571 31.7119 21.561 31.4439 21.561 29.0079C21.561 26.5709 21.561 26.3219 21.614 25.3529C21.6205 24.7769 21.7257 24.2063 21.925 23.6659C22.23 22.8769 22.855 22.2559 23.644 21.9539C24.1786 21.756 24.743 21.6508 25.313 21.6429C26.264 21.5999 26.531 21.5879 28.968 21.5879C31.405 21.5879 31.655 21.5879 32.622 21.6429C33.1924 21.6497 33.7574 21.755 34.292 21.9539C34.6809 22.1042 35.0341 22.3341 35.329 22.6289C35.6238 22.9237 35.8537 23.277 36.004 23.6659C36.2006 24.2008 36.3057 24.765 36.315 25.3349C36.358 26.2859 36.369 26.5529 36.369 28.9899C36.369 31.4259 36.369 31.6879 36.326 32.6439H36.315V32.6429Z" fill="#0F8801"/>
</svg>
