<svg width="197" height="190" viewBox="0 0 197 190" fill="none" xmlns="http://www.w3.org/2000/svg">
<ellipse cx="98.5" cy="95" rx="98.5" ry="95" fill="#E4EEED"/>
<g clip-path="url(#clip0_22_4)">
<path d="M137.04 65.1352C135.8 64.4814 133.01 63.1731 129.91 61.2111C126.5 59.249 121.23 62.5194 117.82 68.0782L111.93 78.5426C109.76 83.1208 110.07 88.0259 112.86 92.2769L113.17 92.6038C115.96 96.8551 119.68 100.452 120.61 101.76C121.23 102.414 121.85 103.722 122.16 104.703C123.09 108.627 121.23 112.224 117.51 113.205C114.1 114.186 110.38 111.897 109.14 108.3C108.83 107.319 108.83 106.338 108.83 105.357C109.14 103.722 108.52 101.106 106.35 99.144C104.18 96.5279 99.8401 101.433 98.5999 106.011V106.338C97.36 111.243 96.43 115.167 96.7399 115.495C96.7399 115.821 97.0501 116.148 97.0501 116.148C98.9101 120.072 97.6699 124.651 93.9499 126.613C90.2299 128.575 85.5799 127.267 83.7199 123.343C81.8599 119.419 83.1001 114.84 86.8201 112.878C87.13 112.878 87.13 112.551 87.4399 112.551C87.7501 112.551 88.3699 110.262 89.2999 107.973C89.92 105.684 90.5401 103.722 90.5401 103.722C90.5401 103.395 90.5401 103.068 90.85 103.068L94.57 89.3338L90.85 97.5089C90.2299 95.8741 89.6101 95.8741 87.7501 97.182C86.8201 97.8361 84.9601 99.4709 84.34 100.125C82.7899 101.433 81.55 103.722 80.9299 105.03C80.62 106.011 79.9999 106.665 79.3801 107.319C76.5901 109.935 72.25 109.281 70.0801 106.338C67.9099 103.395 68.53 99.4709 71.32 97.182C72.25 96.5279 73.18 95.8741 74.11 95.8741C75.6601 95.5468 81.55 91.6227 84.9601 89.3338C85.5799 89.0069 86.2 88.3528 86.5099 88.0259L95.5 81.1588L87.4399 85.7366H85.5799C83.1001 86.0639 79.9999 86.3908 79.3801 87.3718C79.0699 87.6987 78.76 88.3528 78.1399 88.6797C75.6601 89.988 71.9401 89.3338 69.7699 86.7176C67.9099 83.7746 68.53 80.1778 71.0101 78.2157C72.5599 77.2347 73.8001 76.9074 75.04 76.9074C77.2099 76.9074 82.7899 78.2157 87.4399 77.2347L88.6801 76.9074C93.3301 75.9264 98.9101 72.0023 101.08 67.4245C101.08 67.4245 103.25 63.1731 106.04 58.5953C108.83 53.6902 108.52 48.4578 105.73 46.4957L100.46 43.2258C97.6699 41.5906 93.3301 41.5906 90.5401 43.2258L53.9599 64.4814C51.1699 66.1162 49 70.3675 49 73.6375V115.495C49 118.764 51.1699 122.362 53.9599 123.996L90.85 145.579C93.64 147.214 97.9801 147.214 100.77 145.579L137.04 123.67C139.83 122.034 142 118.438 142 115.167V73.6375C142 70.3675 139.83 66.7703 137.04 65.1352Z" fill="#53C451"/>
</g>
<defs>
<clipPath id="clip0_22_4">
<rect width="93" height="105" fill="white" transform="translate(49 42)"/>
</clipPath>
</defs>
</svg>
