<svg width="58" height="57" viewBox="0 0 58 57" fill="none" xmlns="http://www.w3.org/2000/svg">
<path d="M58 28.5C58 44.2401 45.0163 57 29 57C12.9837 57 0 44.2401 0 28.5C0 12.7599 12.9837 0 29 0C45.0163 0 58 12.7599 58 28.5Z" fill="#E4EEED"/>
<path d="M37.26 24.8001C36.8621 24.0965 36.2936 23.5042 35.6068 23.0778C34.9201 22.6515 34.1371 22.4046 33.33 22.3601C32.3789 22.4021 31.4757 22.7897 30.79 23.4501C30.223 23.9635 29.7134 24.5368 29.27 25.1601C28.7902 24.5298 28.2437 23.9531 27.64 23.4401C26.8417 22.7446 25.8188 22.361 24.76 22.3601C23.915 22.4202 23.0992 22.694 22.389 23.1558C21.6789 23.6175 21.0977 24.2522 20.7 25.0001C19.591 26.8051 19.0027 28.8816 19 31.0001C18.9951 31.552 19.0556 32.1024 19.18 32.6401C19.2804 33.1196 19.4595 33.5791 19.71 34.0001C20.0118 34.5193 20.4525 34.9441 20.9824 35.2268C21.5124 35.5094 22.1106 35.6387 22.71 35.6001C23.96 35.6001 24.9 35.0401 26.01 33.6001C26.8416 32.4611 27.5807 31.2572 28.22 30.0001L28.85 28.8801C28.91 28.7901 28.96 28.7001 29.01 28.6101L29.16 28.8601L30.95 31.8601C31.5229 32.8603 32.2109 33.7899 33 34.6301C33.3317 34.9655 33.73 35.2278 34.1692 35.4C34.6083 35.5722 35.0787 35.6506 35.55 35.6301C36.0418 35.6492 36.5307 35.5469 36.9737 35.3324C37.4166 35.1179 37.8 34.7977 38.09 34.4001C38.157 34.3115 38.2172 34.2179 38.27 34.1201C38.3912 33.9194 38.4949 33.7086 38.58 33.4901L38.7 33.1401C38.8342 32.7699 38.9346 32.3884 39 32.0001C39.0185 31.667 39.0185 31.3332 39 31.0001C39.0424 28.8073 38.4371 26.6507 37.26 24.8001ZM27.14 28.3601C26.5 29.3601 25.57 30.8701 24.77 31.9701C23.77 33.3401 23.26 33.4801 22.7 33.4801C22.4665 33.4845 22.2362 33.4254 22.0337 33.3092C21.8312 33.1929 21.664 33.0239 21.55 32.8201C21.2699 32.2987 21.1352 31.7115 21.16 31.1201C21.1376 29.3187 21.6153 27.5463 22.54 26.0001C22.7562 25.594 23.0691 25.2475 23.4511 24.9911C23.833 24.7347 24.2723 24.5764 24.73 24.5301C25.1744 24.5509 25.6087 24.6702 26.0013 24.8795C26.3939 25.0887 26.735 25.3827 27 25.7401C27.3586 26.1569 27.6925 26.5943 28 27.0501L27.14 28.3601ZM35.56 33.4801C35.08 33.4801 34.71 33.2901 34.18 32.6501C33.3182 31.4837 32.53 30.2647 31.82 29.0001L31.3 28.1401C30.94 27.5301 30.59 26.9801 30.3 26.4901C30.3508 26.3965 30.4075 26.3063 30.47 26.2201C31.41 24.8301 32.24 24.0501 33.27 24.0501C33.7909 24.096 34.2919 24.272 34.727 24.5621C35.1621 24.8521 35.5173 25.2469 35.76 25.7101C36.6996 27.33 37.1737 29.1779 37.13 31.0501C37.09 32.3601 36.79 33.4801 35.56 33.4801Z" fill="#0F8801"/>
</svg>
